<svg width="1578" height="303.603" xmlns="http://www.w3.org/2000/svg" xmlns:svg="http://www.w3.org/2000/svg">
    <defs>
        <linearGradient id="grad1" x1="0%" x2="0%" y1="0%" y2="100%">
            <stop offset="0%" stop-color="#8a0073"/>
            <stop offset="15%" stop-color="#f6199e"/>
            <stop offset="50%" stop-color="#ff7de9"/>
            <stop offset="85%" stop-color="#f6199e"/>
            <stop offset="100%" stop-color="#8a0073"/>
        </linearGradient>
    </defs>
    <g class="layer">
        <g fill="#ffffff" fill-rule="nonzero" font-size="9pt" id="svgGroup" stroke="#ffffff" stroke-linecap="round" stroke-width="0.5" transform="matrix(1 0 0 1 0 0) matrix(1 0 0 1 0 0) matrix(1 0 0 1 0 0) matrix(0.907934 0 0 0.907934 33 12)">
            <g id="svg_3" transform="matrix(1 0 0 1 -6.00999 1)">
                <rect fill="url(#grad1)" height="307" id="svg_2" rx="40" ry="40" transform="matrix(0.907412 0 0 1.0679 4.12034 -9.68823)" width="1910" x="-35.62" y="-0.41"/>
                <path d="m328.38,165.19l0,109.33l-30.47,0l0,-104.94q0,-27.75 -13.88,-42.48q-13.88,-14.72 -37.91,-14.72q-24.37,0 -38.76,15.23q-14.39,15.23 -14.39,44.34l0,102.56l-30.81,0l0,-250.5l30.81,0l0,91.4q9.14,-14.22 25.22,-22q16.08,-7.79 36.05,-7.79q20.99,0 37.91,8.97q16.93,8.97 26.57,26.91q9.65,17.94 9.65,43.67l0.01,0.01l0,0.01zm218.68,28.09l-148.26,0q1.69,27.42 18.79,42.82q17.1,15.4 41.46,15.4q19.97,0 33.35,-9.31q13.37,-9.31 18.79,-24.88l33.18,0q-7.45,26.74 -29.79,43.5q-22.34,16.76 -55.52,16.76q-26.4,0 -47.22,-11.84q-20.82,-11.84 -32.67,-33.68q-11.84,-21.83 -11.84,-50.6q0,-28.77 11.51,-50.43q11.51,-21.66 32.33,-33.35q20.82,-11.67 47.9,-11.67q26.4,0 46.72,11.51q20.31,11.51 31.31,31.65q11,20.14 11,45.53q0,8.8 -1.02,18.62l0,-0.01l-0.02,-0.02zm-147.92,-25.05l117.12,0q0,-17.61 -7.79,-30.3q-7.79,-12.69 -21.15,-19.29q-13.37,-6.6 -29.62,-6.6q-23.36,0 -39.78,14.89q-16.42,14.89 -18.79,41.3l0,0.01l0.01,-0.01zm441.07,25.05l-148.26,0q1.69,27.42 18.79,42.82q17.1,15.4 41.46,15.4q19.97,0 33.35,-9.31q13.37,-9.31 18.79,-24.88l33.18,0q-7.45,26.74 -29.79,43.5q-22.34,16.76 -55.52,16.76q-26.4,0 -47.22,-11.84q-20.82,-11.84 -32.67,-33.68q-11.84,-21.83 -11.84,-50.6q0,-28.77 11.51,-50.43q11.51,-21.66 32.33,-33.35q20.82,-11.67 47.9,-11.67q26.4,0 46.72,11.51q20.31,11.51 31.31,31.65q11,20.14 11,45.53q0,8.8 -1.02,18.62l0,-0.01l-0.02,-0.02zm-147.92,-25.05l117.12,0q0,-17.61 -7.79,-30.3q-7.79,-12.69 -21.15,-19.29q-13.37,-6.6 -29.62,-6.6q-23.36,0 -39.78,14.89q-16.42,14.89 -18.79,41.3l0,0.01l0.01,-0.01zm335.12,-46.04l0,-98.17l31.14,0l0,250.5l-31.14,0l0,-34.86q-9.14,16.59 -27.08,27.25q-17.94,10.67 -41.97,10.67q-24.71,0 -44.85,-12.18q-20.14,-12.18 -31.65,-34.18q-11.51,-22 -11.51,-50.1q0,-28.43 11.51,-49.93q11.51,-21.49 31.65,-33.35q20.14,-11.84 45.19,-11.84q21.66,0 40.29,9.99q18.62,9.99 28.43,26.23l0,-0.01l-0.01,-0.02zm0,59.24q0,-20.99 -8.46,-36.56q-8.46,-15.57 -22.85,-23.87q-14.39,-8.29 -31.65,-8.29q-17.27,0 -31.48,8.12q-14.22,8.12 -22.68,23.7q-8.46,15.57 -8.46,36.56q0,21.32 8.46,37.07q8.46,15.74 22.68,24.04q14.22,8.29 31.48,8.29q17.27,0 31.65,-8.29q14.39,-8.29 22.85,-24.04q8.46,-15.74 8.46,-36.73zm571.74,-58.56l0,-33.85l31.14,0l0,185.5l-31.14,0l0,-34.52q-9.14,16.25 -27.25,26.91q-18.11,10.67 -42.14,10.67q-24.71,0 -44.68,-12.18q-19.97,-12.18 -31.48,-34.18q-11.51,-22 -11.51,-50.1q0,-28.43 11.51,-49.93q11.51,-21.49 31.65,-33.35q20.14,-11.84 44.85,-11.84q24.37,0 42.31,10.5q17.94,10.5 26.74,26.4l0,-0.01l0,-0.02zm0,58.56q0,-20.99 -8.46,-36.56q-8.46,-15.57 -22.85,-23.87q-14.39,-8.29 -31.65,-8.29q-17.27,0 -31.48,8.12q-14.22,8.12 -22.68,23.7q-8.46,15.57 -8.46,36.56q0,21.32 8.46,37.07q8.46,15.74 22.68,24.04q14.22,8.29 31.48,8.29q17.27,0 31.65,-8.29q14.39,-8.29 22.85,-24.04q8.46,-15.74 8.46,-36.73zm-1474.18,-67.02l-48.41,0l0,109.33q0,13.54 5.75,19.12q5.75,5.58 19.97,5.58l22.68,0l0,26.07l-27.75,0q-25.73,0 -38.59,-11.84q-12.86,-11.84 -12.86,-38.93l0,-109.33l-24.04,0l0,-25.39l24.04,0l0,-46.72l30.81,0l0,46.72l48.41,0l0,25.39l-0.01,0zm1066.63,163.16q-26.07,0 -47.22,-11.84q-21.15,-11.84 -33.18,-33.68q-12.01,-21.83 -12.01,-50.6q0,-28.43 12.35,-50.26q12.35,-21.83 33.68,-33.51q21.32,-11.67 47.73,-11.67q26.4,0 47.73,11.67q21.32,11.67 33.68,33.35q12.35,21.66 12.35,50.43q0,28.77 -12.69,50.6q-12.69,21.83 -34.35,33.68q-21.66,11.84 -48.07,11.84l-0.01,0l0.01,-0.01zm0,-27.08q16.59,0 31.14,-7.79q14.56,-7.79 23.53,-23.36q8.97,-15.57 8.97,-37.91q0,-22.34 -8.8,-37.91q-8.8,-15.57 -23.02,-23.19q-14.22,-7.62 -30.81,-7.62q-16.93,0 -30.97,7.62q-14.05,7.62 -22.51,23.19q-8.46,15.57 -8.46,37.91q0,22.68 8.29,38.25q8.29,15.57 22.17,23.19q13.88,7.62 30.47,7.62zm226.46,-164.85l0,31.82l-8.12,0q-51.79,0 -51.79,56.19l0,100.88l-30.81,0l0,-185.5l30.81,0l0,30.13q8.12,-15.91 23.19,-24.71q15.06,-8.8 36.73,-8.8l-0.01,-0.01zm-829.33,-61.61l30.81,0l0,250.5l-30.81,0l0,-250.5z" id="svg_1"/>
            </g>
        </g>
    </g>
</svg>